<?xml version="1.0" encoding="UTF-8"?>
<svg width="500" height="243" version="1.1" viewBox="0 0 500 243" xml:space="preserve" xmlns="http://www.w3.org/2000/svg" xmlns:cc="http://creativecommons.org/ns#" xmlns:dc="http://purl.org/dc/elements/1.1/" xmlns:rdf="http://www.w3.org/1999/02/22-rdf-syntax-ns#"><metadata><rdf:RDF><cc:Work rdf:about=""><dc:format>image/svg+xml</dc:format><dc:type rdf:resource="http://purl.org/dc/dcmitype/StillImage"/><dc:title/></cc:Work></rdf:RDF></metadata>


<g transform="matrix(2.1057 0 0 2.1057 -72.701 -44.43)"><g fill="#003b70" stroke-width=".22553">
	<path d="m125.7 66.7 31.3-31.3c4.9-4.9 9.8-0.1 9.8-0.1l-4.9-4.8-7.1-7-43.2 43.2z"/>
	<path d="m198.1 66.7-12.1-12.1s-7.4-7.1-14.6 0.1l-12 12z"/>
	<path d="m149.8 66.7 19.2-19.2c4.9-4.9 9.8-0.1 9.8-0.1l-4.8-4.8s-7.4-7.1-14.6 0.1l-24.1 24.1h14.5z"/></g><g fill="#ffce00" stroke-width=".22553">
	<path d="m125.7 90.9 31.3 31.3c4.9 4.9 9.8 0.1 9.8 0.1l-4.8 4.8-7.1 7-43.2-43.2h14z"/>
	<path d="m198.1 90.9-12.1 12.1s-7.4 7.1-14.6-0.1l-12-12z"/>
	<path d="m149.8 90.9 19.2 19.2c4.9 4.9 9.8 0.1 9.8 0.1l-4.8 4.8s-7.4 7.1-14.6-0.1l-24.1-24.1z"/>
	</g><g stroke-width=".4749"><path d="m47.8 84.1-0.4 1.1c-0.7 0.5-1.3 0.8-1.9 0.9-0.5 0.2-1.2 0.3-2.1 0.3-1.2 0-2.2-0.2-3.1-0.7-0.7-0.4-1.3-0.9-1.8-1.5s-0.9-1.3-1.1-2c-0.3-1.1-0.5-2.3-0.5-3.6 0-2.2 0.6-4 1.8-5.4s2.9-2.1 5-2.1c0.7 0 1.4 0.1 2 0.2s1.3 0.4 2.1 0.7v0.1c-0.1 0.3-0.2 0.7-0.2 1.2-0.1 0.8-0.1 1.5-0.2 2.2h-0.6c0-0.8 0-1.4-0.1-1.8-0.4-0.5-0.8-0.9-1.2-1.1-0.5-0.2-1-0.4-1.8-0.4-1.3 0-2.3 0.5-3.1 1.6-0.8 1-1.2 2.5-1.2 4.4 0 1.1 0.1 2.1 0.4 3 0.3 0.8 0.6 1.5 1 2.1 0.4 0.5 0.9 1 1.3 1.2 0.6 0.3 1.3 0.5 2.2 0.5 0.6 0 1.1-0.1 1.6-0.2s1-0.4 1.6-0.8z"/>
	<path d="m48.7 78.8c0-1.3 0.2-2.4 0.5-3.3 0.3-1 0.7-1.8 1.3-2.4 0.6-0.7 1.2-1.1 1.9-1.4 0.9-0.4 1.8-0.6 2.8-0.6s1.9 0.2 2.7 0.5c0.6 0.3 1.1 0.7 1.6 1.2s0.8 1 1.1 1.6c0.2 0.5 0.4 1.1 0.6 1.8 0.1 0.6 0.2 1.4 0.2 2.1 0 1.3-0.2 2.5-0.5 3.7-0.3 0.8-0.7 1.6-1.2 2.2-0.5 0.7-1.1 1.2-1.7 1.5-0.9 0.5-1.9 0.7-3.1 0.7s-2.3-0.3-3.2-0.9-1.6-1.4-2.1-2.5c-0.6-1.1-0.9-2.5-0.9-4.2m2.6-0.6c0 1.6 0.2 3 0.5 4.1 0.4 1.1 0.8 1.8 1.4 2.3 0.6 0.4 1.2 0.7 2 0.7 0.7 0 1.3-0.2 1.9-0.6 0.5-0.4 1-1.1 1.3-2.1s0.5-2.2 0.5-3.6c0-1-0.1-1.9-0.3-2.7s-0.4-1.5-0.7-2.1-0.7-1-1.1-1.3-1-0.5-1.7-0.5c-0.8 0-1.5 0.2-2.1 0.7s-1 1.2-1.2 2.1c-0.4 0.8-0.5 1.9-0.5 3"/>
	<path d="m62.7 86v-0.5c0.1-0.1 0.3-0.2 0.6-0.4l0.2-0.2v-0.1c0-0.2 0.1-0.8 0.1-1.9v-3.9-4.1c0-1.3-0.1-2.1-0.1-2.3 0-0.1-0.1-0.1-0.1-0.2-0.1-0.1-0.5-0.2-1.3-0.2v-0.9c0.7 0 1.5 0.1 2.4 0.1 1 0 2 0 2.9-0.1v0.9c-0.6 0-1 0.1-1.1 0.2-0.1 0-0.1 0.1-0.1 0.2s-0.1 0.5-0.1 1.3v2.9 3 3 1.8c0.8 0 1.3 0.1 1.6 0.1 0.8 0 1.6-0.1 2.2-0.2 0.2 0 0.4-0.1 0.4-0.1s0.1-0.2 0.1-0.4c0.1-0.5 0.2-1.1 0.3-1.8h0.7v0.3l-0.2 2.1c0 0.7-0.1 1.1-0.1 1.2-0.2 0.1-0.3 0.1-0.5 0.1-0.3 0-0.9 0.1-1.6 0.1-0.1 0-0.7 0-1.9-0.1h-1.9c-0.6 0-1.4 0.1-2.5 0.1"/>
	<path d="m72.6 86v-0.5c0.1-0.1 0.3-0.2 0.6-0.4l0.2-0.2v-0.1c0-0.2 0.1-0.8 0.1-1.9v-3.9-4.1c0-1.3-0.1-2.1-0.1-2.3 0-0.1-0.1-0.1-0.1-0.2-0.1-0.1-0.5-0.2-1.3-0.2v-0.9c0.7 0 1.5 0.1 2.4 0.1 1 0 2 0 2.9-0.1v0.9c-0.6 0-1 0.1-1.1 0.2-0.1 0-0.1 0.1-0.1 0.2s-0.1 0.5-0.1 1.3v2.9 3 3 1.8c0.8 0 1.3 0.1 1.6 0.1 0.8 0 1.6-0.1 2.2-0.2 0.2 0 0.4-0.1 0.4-0.1s0.1-0.2 0.1-0.4c0.1-0.5 0.2-1.1 0.3-1.8h0.7v0.3l-0.2 2.1c0 0.7-0.1 1.1-0.1 1.2-0.2 0.1-0.3 0.1-0.5 0.1-0.3 0-0.9 0.1-1.6 0.1-0.1 0-0.7 0-1.9-0.1h-1.9c-0.6 0-1.4 0.1-2.5 0.1"/>
	<path d="m82.4 86v-0.5c0.3-0.2 0.6-0.4 0.8-0.6 0-0.3 0.1-0.8 0.1-1.4 0-1.2 0.1-2.1 0.1-2.6v-4.7-2c0-0.8-0.1-1.3-0.1-1.5 0-0.1-0.1-0.1-0.1-0.2-0.1-0.1-0.5-0.1-1.2-0.2v-0.8h1.9 1.1 2.5l1.7-0.1h1.2c0.1 0 0.1 0 0.3 0.1l0.1 0.1-0.2 1.5c0 0.1 0 0.6-0.1 1.5h-0.6c0-0.8 0-1.3-0.1-1.5 0-0.1-0.1-0.2-0.1-0.2-0.1-0.1-0.3-0.1-0.7-0.2-0.5-0.1-1.1-0.1-1.6-0.1s-1 0-1.5 0.1c-0.1 0.8-0.1 1.8-0.1 3v2.2c0.4 0 0.8 0.1 1.2 0.1h1.4c0.3 0 0.5 0 0.5-0.1 0.1 0 0.1-0.1 0.1-0.2 0.1-0.3 0.1-0.7 0.1-1.3h0.7v4.6h-0.7c0-0.8 0-1.3-0.1-1.5-0.1-0.1-0.2-0.2-0.4-0.3-0.4-0.1-0.9-0.1-1.5-0.1-0.5 0-1 0-1.3 0.1v4.4 1.3c0.4 0 1 0.1 1.6 0.1s1.1 0 1.6-0.1c0.5 0 0.8-0.1 0.9-0.2 0 0 0.1-0.1 0.1-0.2 0.1-0.3 0.2-1 0.3-1.9h0.7c-0.1 1.4-0.2 2.5-0.2 3.4l-0.1 0.1c-0.4 0.1-0.9 0.1-1.5 0.1h-1.3-2.7c-0.2-0.3-1.1-0.2-2.8-0.2"/>
	<path d="m103.4 75.6h-0.7v-1c0-0.3 0-0.6-0.1-0.8s-0.3-0.4-0.4-0.5c-0.4-0.3-0.8-0.5-1.2-0.7-0.5-0.2-1-0.3-1.6-0.3-1.4 0-2.5 0.5-3.3 1.6s-1.2 2.6-1.2 4.5c0 2.1 0.4 3.7 1.3 4.9s1.9 1.8 3.2 1.8c0.4 0 0.7 0 1.1-0.1s0.7-0.2 1-0.4v-1.1-1c0-0.7 0-1.1-0.1-1.2 0-0.1-0.1-0.1-0.2-0.2-0.2-0.1-0.7-0.1-1.6-0.2v-0.8h5v0.7c-0.3 0.1-0.5 0.2-0.6 0.3 0 0.1-0.1 0.3-0.1 0.6v1.7c0 0.5 0 1.1 0.1 1.6-1 0.5-1.9 0.8-2.7 1s-1.5 0.3-2.3 0.3c-1.2 0-2.3-0.3-3.3-0.8-0.7-0.4-1.2-0.9-1.7-1.5s-0.8-1.2-1.1-1.9c-0.4-1.1-0.6-2.2-0.6-3.5 0-1.1 0.1-2.1 0.4-2.9s0.6-1.5 1.1-2.1 1-1.1 1.6-1.5 1.2-0.7 1.8-0.8c0.6-0.2 1.3-0.2 2.1-0.2 0.9 0 1.8 0.1 2.6 0.3s1.4 0.5 1.9 0.7l0.1 0.2c-0.2 0.6-0.4 1.7-0.5 3.3"/>
	<path d="m106 86v-0.5c0.3-0.2 0.6-0.4 0.8-0.6 0-0.3 0.1-0.8 0.1-1.4 0-1.2 0.1-2.1 0.1-2.6v-4.7-2c0-0.8-0.1-1.3-0.1-1.5 0-0.1-0.1-0.1-0.1-0.2-0.1-0.1-0.5-0.1-1.2-0.2v-0.8h1.9 1.1 2.5l1.7-0.1h1.2c0.1 0 0.1 0 0.3 0.1l0.1 0.1-0.2 1.5c0 0.1 0 0.6-0.1 1.5h-0.6c0-0.8 0-1.3-0.1-1.5 0-0.1-0.1-0.2-0.1-0.2-0.1-0.1-0.3-0.1-0.7-0.2-0.5-0.1-1.1-0.1-1.6-0.1s-1 0-1.5 0.1c-0.1 0.8-0.1 1.8-0.1 3v2.2c0.4 0 0.8 0.1 1.2 0.1h1.4c0.3 0 0.5 0 0.5-0.1 0.1 0 0.1-0.1 0.1-0.2 0.1-0.3 0.1-0.7 0.1-1.3h0.7v4.6h-0.7c0-0.8 0-1.3-0.1-1.5-0.1-0.1-0.2-0.2-0.4-0.3-0.4-0.1-0.9-0.1-1.5-0.1-0.5 0-1 0-1.3 0.1v4.4 1.3c0.4 0 1 0.1 1.6 0.1s1.1 0 1.6-0.1c0.5 0 0.8-0.1 0.9-0.2 0 0 0.1-0.1 0.1-0.2 0.1-0.3 0.2-1 0.3-1.9h0.7c-0.1 1.4-0.2 2.5-0.2 3.4l-0.1 0.1c-0.4 0.1-0.9 0.1-1.5 0.1h-1.3-2.7c-0.2-0.3-1.1-0.2-2.8-0.2"/>
	<path d="m119.6 78.8c0-1.3 0.2-2.4 0.5-3.3 0.3-1 0.7-1.8 1.3-2.4 0.6-0.7 1.2-1.1 1.9-1.4 0.9-0.4 1.8-0.6 2.8-0.6s1.9 0.2 2.7 0.5c0.6 0.3 1.1 0.7 1.6 1.2s0.8 1 1.1 1.6c0.2 0.5 0.4 1.1 0.5 1.8 0.1 0.6 0.2 1.4 0.2 2.1 0 1.3-0.2 2.5-0.5 3.7-0.3 0.8-0.7 1.6-1.2 2.2-0.5 0.7-1.1 1.2-1.7 1.5-0.9 0.5-1.9 0.7-3.1 0.7s-2.3-0.3-3.2-0.9-1.6-1.4-2.1-2.5-0.8-2.5-0.8-4.2m2.6-0.6c0 1.6 0.2 3 0.5 4.1 0.4 1.1 0.8 1.8 1.4 2.3 0.6 0.4 1.2 0.7 2 0.7 0.7 0 1.3-0.2 1.9-0.6 0.5-0.4 1-1.1 1.3-2.1s0.5-2.2 0.5-3.6c0-1-0.1-1.9-0.3-2.7s-0.4-1.5-0.7-2.1-0.7-1-1.1-1.3-1-0.5-1.7-0.5c-0.8 0-1.5 0.2-2.1 0.7s-1 1.2-1.2 2.1c-0.4 0.8-0.5 1.9-0.5 3"/>
	<path d="m140.5 80.9h-0.7c0-0.9-0.1-1.4-0.1-1.6 0-0.1-0.1-0.2-0.3-0.2-0.4-0.1-1.1-0.1-1.9-0.1h-0.7v1.2 3.5c0 0.7 0.1 1.1 0.1 1.2s0.1 0.1 0.2 0.2c0.1 0 0.5 0.1 1.3 0.2v0.8l-3.2-0.1c-0.5 0-1.2 0-2.2 0.1v-0.9c0.6 0 1 0 1.1-0.1 0.1 0 0.1-0.1 0.1-0.1 0-0.1 0.1-0.3 0.1-0.5s0-0.7 0.1-1.5v-1.8-4.4c0-0.1 0-1.1-0.1-2.9 0-0.5 0-0.9-0.1-1.1 0-0.1 0-0.1-0.1-0.2 0 0-0.1-0.1-0.2-0.1s-0.4-0.1-1-0.1v-0.9l2.9 0.1 4-0.1c0.6 0 1.1 0 1.6 0.1l0.1 0.1c-0.1 0.4-0.1 0.9-0.2 1.5 0 0.6-0.1 1.2-0.1 1.6h-0.7v-1.1c0-0.3 0-0.5-0.1-0.6 0 0 0-0.1-0.1-0.1-0.1-0.1-0.3-0.2-0.7-0.2-0.4-0.1-0.8-0.1-1.3-0.1h-0.8-0.9c-0.1 0.7-0.1 2-0.1 3.8v1.5c0.7 0 1.2 0.1 1.4 0.1 0.7 0 1.2 0 1.4-0.1 0.1 0 0.1-0.1 0.2-0.2 0-0.2 0.1-0.6 0.1-1.2h0.7v4.3z"/>
	<path d="m148.2 86v-0.9c0.7 0 1.1-0.1 1.2-0.2s0.2-0.2 0.3-0.4c0.1-0.3 0.1-1.2 0.1-2.7v-6.3-2.9h-1.2c-0.6 0-1.1 0-1.6 0.1-0.2 0-0.3 0-0.3 0.1 0 0-0.1 0.2-0.1 0.4-0.1 0.5-0.1 1-0.1 1.6h-0.7v-2.4c0-0.3 0-0.6-0.1-1l0.1-0.1c0.3 0 0.5 0.1 0.8 0.1h2.7 3.3 2.8c0.3 0 0.5 0 0.8-0.1l0.1 0.1c0 0.4-0.1 0.8-0.1 1.1v2.3h-0.7c0-0.5 0-1.1-0.1-1.6 0-0.3-0.1-0.4-0.1-0.5 0 0-0.1-0.1-0.3-0.1-0.5-0.1-1-0.1-1.6-0.1h-1.2v2.9 6.3c0 1.5 0 2.4 0.1 2.7 0 0.2 0.1 0.3 0.2 0.4s0.5 0.1 1.2 0.2v0.9c-1.1-0.1-2-0.1-2.7-0.1-0.9 0.1-1.8 0.2-2.8 0.2"/>
	<path d="m156.7 86v-0.9c0.5 0 0.8 0 1-0.1 0.1 0 0.2-0.1 0.3-0.1 0.1-0.1 0.1-0.1 0.1-0.2 0.1-0.2 0.1-0.7 0.1-1.5v-9.1c0-0.8 0-1.3-0.1-1.5 0-0.1-0.1-0.2-0.1-0.2-0.1-0.1-0.1-0.1-0.3-0.1-0.1 0-0.4-0.1-1-0.1v-0.9c0.9 0 1.9 0.1 2.9 0.1 0.9 0 1.7 0 2.4-0.1v0.9c-0.6 0-0.9 0.1-1 0.1s-0.2 0.1-0.2 0.2-0.1 0.3-0.1 0.7c0 0.7-0.1 1.7-0.1 3.1v1.2c0.4 0 1.2 0.1 2.5 0.1 1.6 0 2.6 0 3-0.1v-1.2-2.1c0-0.9-0.1-1.5-0.1-1.6s0-0.1-0.1-0.2c0 0-0.1-0.1-0.2-0.1s-0.4-0.1-1-0.1v-0.9c0.7 0 1.5 0.1 2.4 0.1 1 0 2 0 2.9-0.1v0.9c-0.5 0-0.8 0-1 0.1-0.1 0-0.2 0.1-0.3 0.1s-0.1 0.1-0.1 0.2c-0.1 0.2-0.1 0.7-0.1 1.5v9.1c0 0.8 0 1.3 0.1 1.5 0 0.1 0.1 0.2 0.1 0.2 0.1 0.1 0.1 0.1 0.3 0.1 0.1 0 0.4 0 1 0.1v0.9c-0.9 0-1.9-0.1-2.9-0.1-0.9 0-1.7 0-2.4 0.1v-0.9c0.6 0 0.9-0.1 1-0.1s0.2-0.1 0.2-0.2 0.1-0.3 0.1-0.7c0-0.7 0.1-1.7 0.1-3.1v-2.2c-0.3 0-1.1-0.1-2.4-0.1h-2.5c-0.2 0-0.3 0-0.5 0.1v2.2 2.1c0 0.9 0.1 1.5 0.1 1.6s0 0.1 0.1 0.2c0 0 0.1 0.1 0.2 0.1s0.4 0.1 1 0.1v0.9c-0.7 0-1.5-0.1-2.4-0.1-1.1 0-2.1 0.1-3 0.1"/>
	<path d="m170.8 86v-0.5c0.3-0.2 0.6-0.4 0.8-0.6 0-0.3 0.1-0.8 0.1-1.4 0-1.2 0.1-2.1 0.1-2.6v-4.7-2c0-0.8-0.1-1.3-0.1-1.5 0-0.1-0.1-0.1-0.1-0.2-0.1-0.1-0.5-0.1-1.2-0.2v-0.8h1.9 1.1 2.5l1.7-0.1h1.2c0.1 0 0.1 0 0.3 0.1l0.1 0.1-0.2 1.5c0 0.1 0 0.6-0.1 1.5h-0.6c0-0.8 0-1.3-0.1-1.5 0-0.1-0.1-0.2-0.1-0.2-0.1-0.1-0.3-0.1-0.7-0.2-0.5-0.1-1.1-0.1-1.6-0.1s-1 0-1.5 0.1c-0.1 0.8-0.1 1.8-0.1 3v2.2c0.4 0 0.8 0.1 1.2 0.1h1.4c0.3 0 0.5 0 0.5-0.1 0.1 0 0.1-0.1 0.1-0.2 0.1-0.3 0.1-0.7 0.1-1.3h0.7v4.6h-0.7c0-0.8 0-1.3-0.1-1.5-0.1-0.1-0.2-0.2-0.4-0.3-0.4-0.1-0.9-0.1-1.5-0.1-0.5 0-1 0-1.3 0.1v4.4 1.3c0.4 0 1 0.1 1.6 0.1s1.1 0 1.6-0.1c0.5 0 0.8-0.1 0.9-0.2 0 0 0.1-0.1 0.1-0.2 0.1-0.3 0.2-1 0.3-1.9h0.7c-0.1 1.4-0.2 2.5-0.2 3.4l-0.1 0.1c-0.4 0.1-0.9 0.1-1.5 0.1h-1.3-2.7c-0.1-0.3-1.1-0.2-2.8-0.2"/>
	<path d="m195.4 84.1-0.4 1.1c-0.7 0.5-1.3 0.8-1.9 0.9-0.5 0.2-1.2 0.3-2.1 0.3-1.2 0-2.2-0.2-3.1-0.7-0.7-0.4-1.3-0.9-1.8-1.5s-0.9-1.3-1.1-2c-0.4-1.1-0.6-2.3-0.6-3.6 0-2.2 0.6-4 1.8-5.4s2.9-2.1 5-2.1c0.7 0 1.4 0.1 2 0.2s1.3 0.4 2.1 0.7v0.1c-0.1 0.3-0.2 0.7-0.2 1.2-0.1 0.8-0.1 1.5-0.2 2.2h-0.6c0-0.8 0-1.4-0.1-1.8-0.4-0.5-0.8-0.9-1.2-1.1-0.5-0.2-1-0.4-1.8-0.4-1.3 0-2.3 0.5-3.1 1.6-0.8 1-1.2 2.5-1.2 4.4 0 1.1 0.1 2.1 0.4 3 0.3 0.8 0.6 1.5 1 2.1 0.4 0.5 0.9 1 1.3 1.2 0.6 0.3 1.3 0.5 2.2 0.5 0.6 0 1.1-0.1 1.6-0.2 0.5-0.2 1-0.4 1.6-0.8z"/>
	<path d="m195.8 86v-0.9c0.4 0 0.7-0.1 0.8-0.1s0.2-0.1 0.2-0.1c0.1-0.1 0.1-0.2 0.2-0.3s0.3-0.7 0.6-1.6c0.1-0.4 0.4-1.3 0.8-2.6l2.2-6.8 0.7-2.4h1.2l3.7 11 0.5 1.4 0.3 1c0.1 0.1 0.1 0.2 0.2 0.3 0 0.1 0.1 0.1 0.2 0.1s0.2 0.1 0.5 0.1c0.1 0 0.2 0 0.4 0.1v0.9l-2.3-0.1-2.9 0.1v-0.9c0.7 0 1-0.1 1.1-0.1 0.1-0.1 0.1-0.2 0.1-0.3 0-0.2-0.1-0.5-0.2-0.9l-0.7-2.3h-4.3l-0.4 1.3c-0.3 1-0.4 1.6-0.4 1.8s0 0.3 0.1 0.4 0.5 0.2 1.2 0.2v0.9l-1.9-0.1zm3.6-5.7h1.8 1.7l-1.8-5.4z"/>
	<path d="m208.8 85.1c0.7 0 1-0.1 1.1-0.1s0.1-0.1 0.2-0.1c0-0.1 0.1-0.2 0.1-0.4 0-0.3 0.1-0.9 0.1-1.9v-2.3-6.5-1c0-0.2-0.1-0.3-0.1-0.3-0.1-0.1-0.1-0.1-0.3-0.2-0.1 0-0.5-0.1-1.1-0.1v-0.9c0.7 0 1.2 0.1 1.5 0.1h2c1.1 1.9 2.5 4.1 4.1 6.5 1.2 1.8 2.1 3.2 2.9 4.2v-2.4c0-3.8 0-6-0.1-6.7 0-0.3-0.1-0.4-0.1-0.5-0.1-0.1-0.6-0.2-1.3-0.2v-0.9c0.7 0 1.3 0.1 1.9 0.1 0.5 0 1.2 0 2.1-0.1v0.9c-0.7 0-1.1 0.1-1.2 0.2 0 0-0.1 0.1-0.1 0.2-0.1 0.4-0.1 1.2-0.2 2.4v2.8c0 4.7 0 7.5 0.1 8.5l-0.1 0.1c-0.5-0.1-0.9-0.2-1.4-0.3-1.8-2.5-4.3-6.3-7.6-11.4v5.2c0 1.1 0 2.2 0.1 3.4 0 0.8 0.1 1.3 0.1 1.5 0 0.1 0.1 0.2 0.1 0.2 0.1 0.1 0.1 0.1 0.3 0.1 0.4 0.1 0.6 0.1 0.8 0.1h0.2v0.8h-1.8c-0.5 0-1.3 0-2.2 0.1v-1.1z"/>
	<path d="m228.5 78.3 1-2.1c0.2-0.4 0.7-1.6 1.6-3.5 0.3-0.7 0.5-1.1 0.6-1.3h1.3v0.5c-0.7 1.1-1.4 2.5-2.2 4s-1.3 2.5-1.4 3c-0.1 0.3-0.2 0.6-0.2 0.8v0.8 1.8c0 0.9 0 1.5 0.1 1.9 0 0.4 0.1 0.7 0.1 0.7l0.2 0.2c0.1 0.1 0.5 0.1 1.1 0.1v0.9c-1.1 0-2-0.1-2.8-0.1s-1.7 0-2.5 0.1v-0.9c0.6 0 1-0.1 1.1-0.1s0.2-0.1 0.2-0.2 0.1-0.3 0.1-0.6v-2-2c0-0.2-0.1-0.5-0.3-1-0.5-1.2-1.1-2.4-1.7-3.6-0.5-1-0.9-1.7-1.3-2.3-0.3-0.4-0.5-0.6-0.6-0.7-0.1 0-0.3-0.1-0.7-0.1v-0.8l1.8-0.4c0.3-0.1 0.6-0.2 0.9-0.3 0.3 0.2 0.6 0.4 0.7 0.6 0.2 0.2 0.4 0.5 0.6 1 0.4 0.8 0.8 1.6 1.2 2.6 0.6 1.7 1 2.6 1.1 3"/>
	<path d="m233.6 78.8c0-1.3 0.2-2.4 0.5-3.3 0.3-1 0.7-1.8 1.3-2.4 0.6-0.7 1.2-1.1 1.9-1.4 0.9-0.4 1.8-0.6 2.8-0.6s1.9 0.2 2.7 0.5c0.6 0.3 1.1 0.7 1.6 1.2s0.8 1 1.1 1.6c0.2 0.5 0.4 1.1 0.6 1.8 0.1 0.6 0.2 1.4 0.2 2.1 0 1.3-0.2 2.5-0.5 3.7-0.3 0.8-0.7 1.6-1.2 2.2-0.5 0.7-1.1 1.2-1.7 1.5-0.9 0.5-1.9 0.7-3.1 0.7s-2.3-0.3-3.2-0.9-1.6-1.4-2.1-2.5c-0.7-1.1-0.9-2.5-0.9-4.2m2.5-0.6c0 1.6 0.2 3 0.5 4.1 0.4 1.1 0.8 1.8 1.4 2.3 0.5 0.4 1.2 0.7 2 0.7 0.7 0 1.3-0.2 1.9-0.6 0.5-0.4 1-1.1 1.3-2.1s0.5-2.2 0.5-3.6c0-1-0.1-1.9-0.3-2.7s-0.4-1.5-0.7-2.1-0.7-1-1.1-1.3-1-0.5-1.7-0.5c-0.8 0-1.5 0.2-2.1 0.7s-1 1.2-1.2 2.1c-0.3 0.8-0.5 1.9-0.5 3"/>
	<path d="m247 85.1c0.6 0 1-0.1 1.1-0.1s0.1-0.1 0.2-0.1c0-0.1 0.1-0.2 0.1-0.4 0-0.3 0.1-0.9 0.1-1.9v-2.3-6.5-1c0-0.2-0.1-0.3-0.1-0.3-0.1-0.1-0.1-0.1-0.3-0.2s-0.5-0.1-1.1-0.1v-0.9c0.7 0 1.2 0.1 1.5 0.1h2c1.1 1.9 2.5 4.1 4.1 6.5 1.2 1.8 2.1 3.2 2.9 4.2v-2.4c0-3.8 0-6-0.1-6.7 0-0.3-0.1-0.4-0.1-0.5-0.1-0.1-0.6-0.2-1.3-0.2v-0.9c0.7 0 1.3 0.1 1.9 0.1 0.5 0 1.2 0 2.1-0.1v0.9c-0.7 0-1.1 0.1-1.2 0.2 0 0-0.1 0.1-0.1 0.2-0.1 0.4-0.1 1.2-0.2 2.4v2.8c0 4.7 0 7.5 0.1 8.5l-0.1 0.1c-0.5-0.1-0.9-0.2-1.4-0.3-1.8-2.5-4.3-6.3-7.6-11.4v5.2c0 1.1 0 2.2 0.1 3.4 0 0.8 0.1 1.3 0.1 1.5 0 0.1 0.1 0.2 0.1 0.2 0.1 0.1 0.1 0.1 0.3 0.1 0.4 0.1 0.6 0.1 0.8 0.1h0.2v0.8h-1.8c-0.5 0-1.3 0-2.2 0.1v-1.1z"/>
	<path d="m268.6 75.2h-0.7c0-0.8 0-1.4-0.1-1.7-0.2-0.3-0.5-0.6-0.9-0.8s-0.9-0.4-1.4-0.4c-0.7 0-1.3 0.2-1.7 0.7s-0.6 1-0.6 1.7c0 0.5 0.1 0.8 0.2 1.1s0.3 0.5 0.5 0.7 0.5 0.3 0.9 0.5c0.3 0.1 0.8 0.2 1.3 0.3 0.6 0.1 0.9 0.2 1.1 0.3 0.4 0.1 0.8 0.3 1.1 0.5s0.5 0.4 0.7 0.7 0.3 0.6 0.4 1 0.2 0.9 0.2 1.4c0 0.9-0.1 1.7-0.4 2.4-0.2 0.5-0.5 1-0.9 1.4s-0.8 0.7-1.2 1c-0.7 0.3-1.5 0.5-2.4 0.5-0.7 0-1.3-0.1-1.8-0.2-0.5-0.2-1.1-0.4-1.7-0.8 0.2-0.8 0.3-2 0.3-3.6h0.7c0 0.5 0 1.1 0.1 1.9 0.2 0.4 0.6 0.8 1.1 1.1s1.1 0.5 1.7 0.5c0.5 0 1-0.1 1.4-0.4 0.4-0.2 0.7-0.6 0.9-1s0.3-0.9 0.3-1.4c0-0.4-0.1-0.8-0.2-1.1s-0.3-0.6-0.6-0.8-0.8-0.4-1.5-0.6c-1-0.3-1.7-0.5-2-0.6-0.5-0.2-0.9-0.4-1.1-0.8-0.3-0.3-0.5-0.8-0.6-1.2-0.1-0.5-0.2-1-0.2-1.6 0-0.8 0.1-1.5 0.4-2.2s0.6-1.2 1-1.5c0.4-0.4 0.9-0.6 1.4-0.8s1.1-0.2 1.6-0.2c0.6 0 1.1 0.1 1.7 0.2 0.5 0.1 1 0.3 1.4 0.6l0.1 0.3c-0.1 0.5-0.1 0.9-0.2 1.3-0.3 0.3-0.3 0.8-0.3 1.6"/>
</g></g>
</svg>
